<svg width="20" height="20" viewBox="0 0 20 20" fill="none" xmlns="http://www.w3.org/2000/svg">
<path d="M17.8727 0.51416C16.9506 0.51416 16.2003 1.26441 16.2003 2.18659C16.2003 2.49224 15.9113 2.78124 15.6057 2.78124H15.0482V1.07164C15.0482 0.763761 14.7986 0.51416 14.4907 0.51416H5.57107C5.26319 0.51416 5.01359 0.763761 5.01359 1.07164V2.78124H4.42593C4.12029 2.78124 3.83129 2.49224 3.83129 2.18659C3.83129 1.26441 3.08104 0.51416 2.15886 0.51416C1.23798 0.51416 0.516602 1.24877 0.516602 2.18659V3.33871C0.516602 6.42959 2.81664 9.00938 5.83003 9.41544C6.42088 10.3165 7.29984 11.0239 8.35845 11.3978V13.968H6.68602C6.37814 13.968 6.12854 14.2176 6.12854 14.5254V16.1979H5.57107C5.26319 16.1979 5.01359 16.4475 5.01359 16.7553V18.9853C5.01359 19.2931 5.26319 19.5427 5.57107 19.5427H14.4907C14.7986 19.5427 15.0482 19.2931 15.0482 18.9853V16.7553C15.0482 16.4475 14.7986 16.1979 14.4907 16.1979H13.9332V14.5254C13.9332 14.2176 13.6836 13.968 13.3758 13.968H11.7033V11.3978C12.7636 11.0234 13.6435 10.3143 14.2344 9.41124C17.2499 8.9889 19.5452 6.40112 19.5452 3.33871V2.18659C19.5452 1.26441 18.7949 0.51416 17.8727 0.51416ZM1.63156 3.33871V2.18659C1.63156 1.86876 1.85826 1.62912 2.15886 1.62912C2.46625 1.62912 2.71633 1.8792 2.71633 2.18659C2.71633 3.11331 3.49922 3.89619 4.42593 3.89619H5.01359V6.68358C5.01359 7.19267 5.09171 7.68711 5.23658 8.15495C3.12701 7.54403 1.63156 5.61608 1.63156 3.33871ZM13.3758 17.3128H13.9332V18.4278H6.12854V17.3128H6.68602C6.9939 17.3128 7.2435 17.0632 7.2435 16.7553V15.0829H12.8183V16.7553C12.8183 17.0632 13.0679 17.3128 13.3758 17.3128ZM11.0061 10.4461C10.7601 10.5098 10.5884 10.7317 10.5884 10.9857V13.968H9.47341V10.9857C9.47341 10.7317 9.30163 10.5098 9.05571 10.4461C7.33225 9.99968 6.12854 8.45249 6.12854 6.68358V1.62912H13.9332V6.68358C13.9332 8.45249 12.7295 9.99968 11.0061 10.4461ZM18.4302 3.33871C18.4302 5.56301 16.9117 7.51073 14.8293 8.14149C14.9715 7.67764 15.0482 7.1878 15.0482 6.68358V3.89619H15.6057C16.5324 3.89619 17.3153 3.11331 17.3153 2.18659C17.3153 1.8792 17.5653 1.62912 17.8727 1.62912C18.1801 1.62912 18.4302 1.8792 18.4302 2.18659V3.33871Z" fill="#F7F7F7"/>
</svg>
